<svg xmlns="http://www.w3.org/2000/svg" width="1440" height="900" viewBox="0 0 1440 900">
<defs><linearGradient id="g" x1="0" x2="1"><stop stop-color="#55e6df"/><stop offset="1" stop-color="#16b7c6"/></linearGradient></defs><rect width="1440" height="900" rx="24" fill="#070a0c"/><g font-family="Inter,Arial,sans-serif"><text x="112" y="130" fill="#f2f6f7" font-size="54" font-weight="800">Every control stays available.</text><text x="112" y="182" fill="#83969f" font-size="24">Desktop density. Tablet panels. Mobile bottom navigation.</text><text x="112" y="257" fill="#3dd7cf" font-size="18" font-weight="700">EN / FR · TOUCH-SAFE · KEYBOARD-SAFE · REDUCED-MOTION AWARE</text>
<g transform="translate(110 320)"><rect width="690" height="400" rx="24" fill="#0d1317" stroke="#26343b"/><rect x="28" y="28" width="58" height="58" rx="14" fill="#10282b"/><path d="M43 43h18c7 0 12 5 12 12v4" fill="none" stroke="#46ddd5" stroke-width="4"/><path d="M49 50l12 8-12 8z" fill="#62eee6"/><text x="105" y="66" fill="#f4f7f8" font-size="24" font-weight="750">Auto<tspan fill="#3dd7cf">Subs</tspan></text><rect x="560" y="35" width="93" height="42" rx="10" fill="#111b20" stroke="#29383f"/><text x="606" y="62" text-anchor="middle" fill="#e1e8eb" font-size="14">FR / EN</text><text x="30" y="130" fill="#f3f6f7" font-size="30" font-weight="750">Tablet editor</text><rect x="30" y="157" width="400" height="210" rx="12" fill="#071013"/><path d="M30 304l105-83 74 45 84-93 137 112v82H30z" fill="#19343e"/><text x="230" y="280" text-anchor="middle" fill="#fff" font-size="16" font-weight="800">SUBTITLES FOLLOW</text><text x="230" y="303" text-anchor="middle" fill="#3dd7cf" font-size="16" font-weight="800">THE REAL CANVAS</text><rect x="450" y="157" width="210" height="64" rx="10" fill="#111a1f"/><text x="466" y="184" fill="#6f838b" font-size="11">PRESET</text><text x="466" y="205" fill="#e8eef0" font-size="14">Karaoke</text><rect x="450" y="232" width="210" height="64" rx="10" fill="#111a1f"/><text x="466" y="259" fill="#6f838b" font-size="11">FORMAT</text><text x="466" y="280" fill="#e8eef0" font-size="14">Source · Preserve</text><rect x="450" y="307" width="210" height="60" rx="10" fill="url(#g)"/><text x="555" y="343" text-anchor="middle" fill="#071011" font-size="14" font-weight="800">SAVE &amp; RENDER</text></g>
<g transform="translate(890 104)"><rect width="368" height="704" rx="58" fill="#020405" stroke="#38474e" stroke-width="5"/><rect x="16" y="16" width="336" height="672" rx="44" fill="#0a0f13"/><rect x="130" y="28" width="108" height="24" rx="12" fill="#020405"/><rect x="34" y="74" width="42" height="42" rx="11" fill="#10282b"/><path d="M46 85h12c6 0 10 4 10 10v3" fill="none" stroke="#45ddd4" stroke-width="3"/><path d="M50 90l9 6-9 6z" fill="#61eee6"/><text x="88" y="102" fill="#f4f7f8" font-size="18" font-weight="750">Auto<tspan fill="#3dd7cf">Subs</tspan></text><rect x="277" y="79" width="54" height="32" rx="9" fill="#111b20" stroke="#29383f"/><text x="304" y="100" text-anchor="middle" fill="#e5ecee" font-size="11">FR</text><text x="34" y="153" fill="#f3f6f7" font-size="27" font-weight="750">Queue</text><rect x="34" y="174" width="298" height="82" rx="13" fill="#0f171b" stroke="#223138"/><text x="50" y="202" fill="#e9eff1" font-size="13" font-weight="700">Travel Vlog.mov</text><text x="50" y="225" fill="#7f929b" font-size="11">Transcribing</text><rect x="50" y="238" width="200" height="5" rx="3" fill="#263238"/><rect x="50" y="238" width="93" height="5" rx="3" fill="#3dd7cf"/><text x="306" y="227" text-anchor="end" fill="#3dd7cf" font-size="11">46%</text><rect x="34" y="268" width="298" height="82" rx="13" fill="#0f171b" stroke="#223138"/><text x="50" y="296" fill="#e9eff1" font-size="13" font-weight="700">Interview.mp4 + .srt</text><text x="50" y="319" fill="#92bfff" font-size="11">Ready</text><rect x="250" y="287" width="66" height="32" rx="8" fill="#3dd7cf"/><text x="283" y="308" text-anchor="middle" fill="#071011" font-size="10" font-weight="750">Render</text><rect x="34" y="362" width="298" height="185" rx="13" fill="#071013"/><path d="M34 487l80-65 55 34 63-72 100 88v75H34z" fill="#19343e"/><text x="183" y="465" text-anchor="middle" fill="#fff" font-size="14" font-weight="800">EDIT ON THE GO</text><text x="183" y="486" text-anchor="middle" fill="#3dd7cf" font-size="14" font-weight="800">WITHOUT LOSING TOOLS</text><rect x="34" y="562" width="298" height="54" rx="13" fill="#3dd7cf"/><text x="183" y="595" text-anchor="middle" fill="#071011" font-size="13" font-weight="800">＋ ADD FILES</text><rect x="16" y="626" width="336" height="62" rx="0" fill="#0d1418"/><text x="57" y="661" text-anchor="middle" fill="#3dd7cf" font-size="11">▣</text><text x="120" y="661" text-anchor="middle" fill="#8a9aa2" font-size="11">✎</text><text x="184" y="661" text-anchor="middle" fill="#8a9aa2" font-size="11">◉</text><text x="248" y="661" text-anchor="middle" fill="#8a9aa2" font-size="11">⌁</text><text x="311" y="661" text-anchor="middle" fill="#8a9aa2" font-size="11">⚙</text></g>
</g></svg>
