<svg xmlns="http://www.w3.org/2000/svg" width="1440" height="900" viewBox="0 0 1440 900">
<rect width="1440" height="900" rx="24" fill="#070a0c"/><g font-family="Inter,Arial,sans-serif">
<rect x="22" y="22" width="86" height="856" rx="18" fill="#0d1317" stroke="#202b31"/><rect x="38" y="44" width="54" height="54" rx="14" fill="#10282b"/><path d="M51 59h18c7 0 12 5 12 12v5" fill="none" stroke="#47ddd5" stroke-width="4"/><path d="M57 66l12 8-12 8z" fill="#62eee6"/><rect x="62" y="83" width="18" height="4" rx="2" fill="#47ddd5"/>
<rect x="34" y="142" width="62" height="48" rx="12" fill="#113033"/><text x="65" y="172" text-anchor="middle" fill="#62eee6" font-size="18">✎</text><text x="65" y="232" text-anchor="middle" fill="#8fa0a8" font-size="18">▣</text><text x="65" y="292" text-anchor="middle" fill="#8fa0a8" font-size="18">◉</text><text x="65" y="352" text-anchor="middle" fill="#8fa0a8" font-size="18">◎</text><text x="65" y="412" text-anchor="middle" fill="#8fa0a8" font-size="18">⌁</text><text x="65" y="472" text-anchor="middle" fill="#8fa0a8" font-size="18">⚙</text>
<text x="142" y="75" fill="#f3f7f8" font-size="30" font-weight="750">Editor</text><text x="142" y="105" fill="#758992" font-size="14">Travel Vlog — Japan.mov · Ready</text>
<rect x="1125" y="48" width="122" height="44" rx="11" fill="#111a1f" stroke="#2b3a40"/><text x="1186" y="75" text-anchor="middle" fill="#e4ecef" font-size="13">Export ASS</text><rect x="1259" y="48" width="145" height="44" rx="11" fill="#3dd7cf"/><text x="1332" y="75" text-anchor="middle" fill="#071011" font-size="13" font-weight="750">Render video</text>
<rect x="132" y="136" width="744" height="430" rx="16" fill="#0d1317" stroke="#202c32"/><rect x="153" y="157" width="702" height="350" rx="10" fill="#020304"/><path d="M153 391L300 285l96 57 104-115 113 97 142-132v315H153z" fill="#102128"/><path d="M153 420l180-91 105 62 96-102 128 92 193-122v248H153z" fill="#17313a"/><text x="504" y="418" text-anchor="middle" fill="#fff" font-size="25" font-weight="800">MAKE EVERY WORD COUNT</text><text x="504" y="450" text-anchor="middle" fill="#3dd7cf" font-size="25" font-weight="800">WITHOUT RE-ENCODING TO EDIT</text><rect x="153" y="520" width="702" height="46" rx="0" fill="#091014"/><text x="172" y="548" fill="#dce4e8" font-size="13">▶  00:18.420 / 01:42.105</text><rect x="364" y="540" width="420" height="5" rx="3" fill="#263238"/><rect x="364" y="540" width="122" height="5" rx="3" fill="#3dd7cf"/>
<rect x="132" y="590" width="744" height="268" rx="16" fill="#0d1317" stroke="#202c32"/><text x="154" y="625" fill="#f1f5f6" font-size="16" font-weight="700">Subtitles</text><rect x="650" y="606" width="92" height="32" rx="8" fill="#111b20" stroke="#2a3940"/><text x="696" y="627" text-anchor="middle" fill="#cfd9dd" font-size="12">Regroup</text><rect x="750" y="606" width="104" height="32" rx="8" fill="#3dd7cf"/><text x="802" y="627" text-anchor="middle" fill="#061011" font-size="12" font-weight="700">Save edits</text>
<g transform="translate(154 650)"><text y="20" fill="#6f838c" font-size="11">START</text><text x="92" y="20" fill="#6f838c" font-size="11">END</text><text x="188" y="20" fill="#6f838c" font-size="11">TEXT</text><rect y="35" width="700" height="50" rx="8" fill="#10191e"/><text x="12" y="65" fill="#94a5ad" font-size="12">00:17.900</text><text x="104" y="65" fill="#94a5ad" font-size="12">00:19.020</text><text x="198" y="65" fill="#eef3f5" font-size="13">Make every word count.</text><rect y="93" width="700" height="50" rx="8" fill="#102326" stroke="#28615f"/><text x="12" y="123" fill="#94a5ad" font-size="12">00:19.030</text><text x="104" y="123" fill="#94a5ad" font-size="12">00:21.310</text><text x="198" y="123" fill="#fff" font-size="13">Without re-encoding just to edit.</text><rect y="151" width="700" height="50" rx="8" fill="#10191e"/><text x="12" y="181" fill="#94a5ad" font-size="12">00:21.320</text><text x="104" y="181" fill="#94a5ad" font-size="12">00:22.880</text><text x="198" y="181" fill="#eef3f5" font-size="13">Then render when you are ready.</text></g>
<rect x="900" y="136" width="504" height="722" rx="16" fill="#0d1317" stroke="#202c32"/><text x="924" y="176" fill="#f1f5f6" font-size="18" font-weight="700">Style &amp; output</text><text x="924" y="210" fill="#768a93" font-size="12">PRESET</text><rect x="924" y="222" width="456" height="44" rx="9" fill="#111a1f" stroke="#2a3940"/><text x="940" y="249" fill="#e6edef" font-size="13">Clean Pop</text><text x="1350" y="249" fill="#798c95" font-size="13">⌄</text>
<text x="924" y="302" fill="#768a93" font-size="12">FORMAT</text><rect x="924" y="314" width="218" height="44" rx="9" fill="#111a1f" stroke="#2a3940"/><text x="940" y="341" fill="#e6edef" font-size="13">9:16</text><rect x="1162" y="314" width="218" height="44" rx="9" fill="#111a1f" stroke="#2a3940"/><text x="1178" y="341" fill="#e6edef" font-size="13">Cover</text>
<rect x="924" y="390" width="456" height="228" rx="14" fill="#080c0f" stroke="#26353b"/><rect x="1060" y="408" width="184" height="192" rx="9" fill="#15252c"/><path d="M1060 536l60-48 47 28 77-66v150h-184z" fill="#21424d"/><text x="1152" y="506" text-anchor="middle" fill="#fff" font-size="15" font-weight="800">SAMPLE</text><text x="1152" y="529" text-anchor="middle" fill="#3dd7cf" font-size="15" font-weight="800">SUBTITLE</text>
<text x="924" y="660" fill="#768a93" font-size="12">SIDECAR</text><rect x="924" y="674" width="456" height="44" rx="9" fill="#111a1f" stroke="#2a3940"/><text x="940" y="701" fill="#e6edef" font-size="13">Travel Vlog — Japan.ass</text><text x="1344" y="701" fill="#3dd7cf" font-size="12">Replace</text>
<text x="924" y="750" fill="#768a93" font-size="12">CANONICAL TIMING</text><rect x="924" y="766" width="142" height="54" rx="10" fill="#111b20"/><text x="940" y="789" fill="#758991" font-size="11">OVERLAPS</text><text x="940" y="810" fill="#eef3f5" font-size="16" font-weight="700">0 repaired</text><rect x="1081" y="766" width="142" height="54" rx="10" fill="#111b20"/><text x="1097" y="789" fill="#758991" font-size="11">RETIMED</text><text x="1097" y="810" fill="#eef3f5" font-size="16" font-weight="700">0 lines</text><rect x="1238" y="766" width="142" height="54" rx="10" fill="#111b20"/><text x="1254" y="789" fill="#758991" font-size="11">EMPTY</text><text x="1254" y="810" fill="#eef3f5" font-size="16" font-weight="700">0 dropped</text>
</g></svg>
